<?xml version="1.0" standalone="no"?>
<!DOCTYPE svg PUBLIC "-//W3C//DTD SVG 20010904//EN"
 "http://www.w3.org/TR/2001/REC-SVG-20010904/DTD/svg10.dtd">
<svg version="1.0" xmlns="http://www.w3.org/2000/svg"
 width="800.000000pt" height="800.000000pt" viewBox="0 0 800.000000 800.000000"
 preserveAspectRatio="xMidYMid meet">
<metadata>
Created by potrace 1.14, written by Peter Selinger 2001-2017
</metadata>
<g transform="translate(0.000000,800.000000) scale(0.100000,-0.100000)"
fill="#000000" stroke="none">
<path d="M0 4000 l0 -4000 4000 0 4000 0 0 4000 0 4000 -4000 0 -4000 0 0
-4000z m4354 2965 c663 -78 1281 -379 1758 -858 361 -362 617 -797 757 -1287
164 -572 154 -1171 -29 -1735 -43 -130 -151 -388 -188 -446 -15 -24 -20 -27
-25 -15 -4 9 -1 15 6 13 7 -1 11 6 11 15 -1 10 3 15 9 11 6 -4 8 0 4 11 -4 10
-3 15 3 11 6 -3 10 -2 10 4 0 5 -5 13 -10 16 -6 4 -8 10 -6 14 3 4 -4 20 -15
37 -17 26 -26 21 -20 -10 1 -5 -4 -4 -12 2 -8 7 -17 9 -20 5 -4 -3 -7 -1 -7 5
0 17 18 24 24 10 4 -7 4 -2 2 11 -5 23 32 113 43 106 3 -1 7 7 7 18 1 12 24
85 52 162 171 479 202 1044 87 1557 -106 471 -326 892 -658 1259 -307 340
-732 612 -1160 743 -210 64 -228 51 -49 -38 334 -165 595 -349 832 -586 454
-454 737 -1026 816 -1650 22 -171 22 -513 0 -685 -23 -179 -69 -374 -127 -539
-51 -146 -55 -154 -66 -141 -5 4 -2 10 5 12 6 3 12 11 12 18 0 7 -6 15 -12 18
-7 2 -5 3 5 2 9 -2 17 2 17 8 0 18 -16 39 -26 36 -5 -1 -26 24 -48 55 -21 32
-46 61 -56 63 -10 3 -21 11 -24 19 -3 8 -12 14 -20 14 -9 0 -18 11 -22 25 -3
14 -10 25 -14 25 -4 0 -11 11 -14 25 -4 14 -11 25 -16 25 -6 0 -10 7 -10 15 0
8 -7 15 -15 15 -8 0 -22 18 -31 40 -10 26 -23 40 -34 40 -11 0 -24 14 -34 40
-9 22 -23 40 -31 40 -8 0 -15 7 -15 15 0 8 -4 15 -10 15 -5 0 -12 11 -16 25
-3 14 -12 25 -20 25 -8 0 -14 4 -14 9 0 5 -16 26 -35 46 -19 21 -37 45 -40 55
-3 10 -14 20 -24 23 -10 2 -29 27 -41 56 -19 40 -29 51 -47 51 -18 0 -27 9
-39 40 -10 25 -23 40 -33 40 -11 0 -26 18 -40 50 -13 28 -38 67 -57 86 -18 20
-36 45 -39 55 -4 10 -10 19 -15 19 -5 0 -11 8 -13 18 -3 11 -5 9 -6 -8 -2 -38
-21 -4 -21 38 0 45 -20 31 -21 -16 -1 -20 -7 10 -14 68 -8 63 -13 234 -14 430
l0 325 40 -45 c22 -25 58 -68 80 -97 34 -43 39 -55 30 -72 -16 -30 -14 -46 4
-31 8 6 18 9 24 6 18 -11 41 -102 42 -162 1 -72 -12 -122 -62 -240 -21 -50
-39 -93 -39 -96 0 -2 9 -4 19 -4 11 0 19 3 18 6 -1 3 32 39 74 80 151 151 187
317 105 495 l-25 56 29 55 c98 184 44 400 -137 541 -124 97 -206 154 -218 149
-6 -2 -19 -20 -29 -39 -9 -20 -25 -39 -36 -42 -11 -4 -20 -12 -20 -20 0 -7 -9
-15 -21 -18 -17 -5 -20 -12 -18 -41 2 -19 0 -38 -4 -42 -4 -4 -7 -2 -7 4 0 7
-4 12 -10 12 -7 0 -10 -158 -11 -452 0 -440 -6 -565 -24 -525 -6 15 -10 16
-16 5 -6 -9 -9 -6 -10 12 0 14 -3 19 -6 13 -7 -18 -23 -16 -23 3 0 8 -4 13 -8
10 -5 -3 -17 13 -27 36 -9 22 -26 43 -36 45 -10 3 -21 14 -25 26 -9 28 -34 53
-62 61 -12 4 -29 21 -37 37 -9 16 -19 29 -23 29 -4 0 -13 14 -20 30 -8 18 -21
30 -33 30 -10 0 -19 4 -19 9 0 5 -29 38 -64 74 -35 35 -67 74 -71 86 -4 12
-19 27 -33 34 -15 6 -38 22 -51 34 -25 24 -41 29 -41 13 0 -5 -7 -10 -16 -10
-14 0 -16 9 -12 50 4 41 2 53 -17 70 -12 11 -29 20 -39 20 -15 0 -17 6 -13 30
6 27 4 30 -27 35 -18 4 -39 5 -47 4 -8 -1 -31 5 -51 14 -27 11 -36 20 -32 31
3 9 8 16 11 16 3 0 3 -7 -1 -15 -7 -18 3 -19 24 -2 19 15 66 82 52 73 -6 -3
-13 0 -15 6 -3 8 -6 6 -6 -4 -1 -10 -6 -18 -11 -18 -6 0 -8 12 -4 28 4 22 3
24 -6 12 -13 -17 -14 -20 24 110 61 213 88 504 67 705 -21 189 -73 388 -144
546 l-25 56 -57 8 c-31 3 -59 5 -61 2 -3 -2 4 -25 15 -49 76 -178 111 -488 80
-715 -15 -112 -59 -294 -70 -288 -5 4 -7 0 -4 -7 3 -7 -5 -45 -18 -83 -22 -64
-24 -67 -31 -41 -4 17 -3 33 3 39 13 13 15 30 2 23 -5 -3 -9 0 -8 7 1 31 -4
45 -17 50 -10 4 -13 1 -9 -9 3 -7 1 -14 -5 -14 -5 0 -12 18 -15 40 -7 51 -22
70 -57 70 -25 0 -28 4 -39 58 -8 38 -13 206 -14 498 l-2 442 -87 1 c-75 1 -87
-1 -92 -16 -21 -69 -84 -481 -87 -571 -1 -26 -3 -29 -6 -12 -8 55 -26 109 -34
104 -5 -2 -11 7 -15 21 -3 13 -10 23 -14 20 -4 -3 -11 7 -14 20 -4 14 -11 23
-16 20 -6 -3 -10 1 -10 9 0 9 -5 16 -11 16 -7 0 -9 -10 -7 -25 3 -14 2 -25 -3
-25 -4 0 -10 -10 -12 -22 -13 -65 7 124 24 230 27 171 33 156 -58 148 -72 -7
-163 -19 -223 -32 -19 -3 -22 -2 -10 6 10 6 11 10 3 10 -7 0 -13 4 -13 8 0 5
24 8 53 7 28 -2 39 -1 22 1 -16 3 -41 7 -55 10 l-25 6 30 14 c17 8 22 12 12 9
-38 -10 -67 6 -86 50 -16 37 -23 43 -43 39 -22 -4 -22 -4 -2 5 34 15 270 60
394 75 160 19 533 20 694 1z m-1217 -121 c-3 -3 -12 -4 -19 -1 -8 3 -5 6 6 6
11 1 17 -2 13 -5z m190 -130 c-3 -3 -12 -4 -19 -1 -8 3 -5 6 6 6 11 1 17 -2
13 -5z m350 -336 c-3 -8 -6 -5 -6 6 -1 11 2 17 5 13 3 -3 4 -12 1 -19z m-24
-59 c-6 -6 -7 3 -4 23 4 28 6 29 9 9 2 -13 0 -27 -5 -32z m114 -186 c-2 -16
-4 -5 -4 22 0 28 2 40 4 28 2 -13 2 -35 0 -50z m-1934 -98 c-10 -13 -22 -25
-27 -25 -5 0 1 11 14 25 30 32 36 32 13 0z m-40 -50 c-3 -9 -8 -14 -10 -11 -3
3 -2 9 2 15 9 16 15 13 8 -4z m-34 -61 c-5 -6 -7 -18 -3 -27 3 -8 0 -25 -6
-37 -8 -15 -8 -20 -1 -16 6 4 11 2 11 -5 0 -8 7 -6 19 5 17 15 19 15 32 -1 12
-15 12 -16 -3 -11 -21 8 -55 -26 -37 -38 8 -5 10 -3 4 6 -6 9 -4 11 5 5 8 -5
11 -4 7 2 -3 5 1 10 10 10 12 0 9 -6 -10 -23 -15 -13 -27 -26 -27 -29 0 -4
-18 -27 -39 -53 -122 -146 -302 -458 -389 -677 -285 -716 -264 -1511 57 -2208
23 -49 38 -94 34 -100 -3 -7 -3 -9 2 -5 4 4 30 -31 56 -77 27 -47 73 -122 102
-167 30 -46 54 -90 54 -98 0 -8 4 -24 9 -35 7 -18 6 -18 -9 -6 -9 7 -17 21
-17 30 -1 9 -8 0 -17 -19 -16 -35 -18 -43 -22 -70 -1 -11 -7 -9 -21 9 -11 13
-20 29 -20 36 0 7 -4 15 -9 17 -5 2 -29 35 -54 73 -33 51 -42 73 -35 83 8 9 7
11 -5 6 -19 -7 -51 48 -43 74 4 10 -5 30 -20 47 -18 21 -21 23 -10 5 9 -13 16
-31 16 -40 0 -8 -26 36 -57 99 -39 78 -57 125 -56 150 0 24 -2 30 -6 17 -6
-15 -10 -11 -25 22 -10 22 -15 46 -11 53 5 7 4 10 -2 6 -12 -8 -91 229 -128
383 -49 206 -66 351 -72 602 -8 340 15 549 93 848 82 314 235 645 424 915 84
120 130 176 140 170 5 -3 18 7 30 22 12 15 17 29 12 31 -5 1 0 14 12 27 14 16
23 20 28 12 4 -6 3 -17 -3 -23z m-59 -49 c-7 -9 -15 -13 -18 -10 -3 2 1 11 8
20 7 9 15 13 18 10 3 -2 -1 -11 -8 -20z m2367 -122 c-3 -10 -5 -2 -5 17 0 19
2 27 5 18 2 -10 2 -26 0 -35z m123 -119 c0 -8 -5 -12 -10 -9 -6 4 -8 11 -5 16
9 14 15 11 15 -7z m1395 -327 c59 -77 87 -154 89 -244 0 -39 -2 -74 -6 -78 -6
-6 -145 93 -200 144 l-28 25 0 168 0 169 50 -63 c28 -35 70 -89 95 -121z
m-1198 -99 c-3 -7 -5 -2 -5 12 0 14 2 19 5 13 2 -7 2 -19 0 -25z m-1796 -295
c-26 -3 -31 -7 -20 -14 12 -7 12 -9 -1 -9 -9 0 -20 4 -25 8 -6 5 -21 6 -35 1
-25 -7 -25 -7 4 -8 16 -1 26 -4 23 -8 -8 -7 11 -33 25 -33 6 0 7 8 3 18 -5 13
-3 14 5 6 9 -9 9 -17 1 -33 -7 -12 -8 -21 -3 -21 5 0 14 11 20 25 6 14 17 25
23 25 7 0 5 -7 -5 -19 -19 -21 -32 -126 -17 -136 5 -3 7 5 4 17 -4 17 3 12 24
-17 17 -22 42 -51 57 -64 14 -14 26 -30 26 -37 0 -7 5 -16 12 -20 7 -5 8 -3 3
6 -6 9 -4 11 4 6 7 -5 10 -14 7 -22 -3 -8 -1 -14 4 -14 6 0 10 8 10 18 0 14 2
15 10 2 8 -12 10 -12 10 5 0 11 9 31 20 45 19 24 19 24 13 3 -3 -13 -8 -23
-12 -23 -13 0 -6 -45 12 -77 19 -36 30 -44 21 -15 -11 30 66 -56 81 -92 35
-84 4 -205 -59 -231 -59 -25 -94 -19 -131 19 -39 42 -60 110 -52 174 6 51 35
122 49 122 5 0 4 9 -2 19 -5 11 -47 38 -92 61 -136 68 -159 97 -166 209 -3 53
-2 72 6 67 8 -4 10 -2 6 7 -8 21 39 36 111 35 36 -1 46 -3 26 -5z m72 -16 c3
-8 -1 -14 -8 -14 -7 0 -11 6 -8 14 3 7 6 13 8 13 2 0 5 -6 8 -13z m2 -47 c26
-28 15 -31 -12 -3 -12 13 -19 23 -14 23 4 0 16 -9 26 -20z m45 -25 c0 -5 -5
-3 -10 5 -5 8 -10 20 -10 25 0 6 5 3 10 -5 5 -8 10 -19 10 -25z m-325 -307
c109 -243 164 -318 254 -349 27 -10 30 -13 19 -27 -7 -8 -32 -24 -56 -34 -53
-24 -91 -17 -138 24 -19 17 -34 27 -34 23 0 -3 12 -57 26 -118 20 -86 23 -116
15 -135 -14 -30 -93 -65 -130 -57 -91 20 -267 322 -273 466 -1 33 4 45 23 61
57 45 61 43 95 -51 58 -164 194 -390 227 -378 32 11 -32 279 -98 408 -54 107
-69 157 -52 177 15 19 68 52 83 52 6 0 23 -28 39 -62z m771 -177 c0 -11 -4
-17 -9 -14 -13 8 -38 -19 -33 -34 4 -9 1 -11 -6 -7 -7 5 -9 2 -5 -9 4 -11 2
-14 -9 -10 -7 3 -14 0 -14 -6 0 -6 5 -11 10 -11 7 0 7 -6 1 -19 -8 -14 -7 -22
3 -30 7 -6 16 -8 19 -4 4 3 7 -3 7 -15 0 -12 6 -22 13 -22 32 0 36 -23 10 -56
-14 -19 -30 -31 -36 -27 -5 3 -7 2 -4 -3 3 -5 -21 -43 -54 -84 -374 -466 -541
-758 -606 -1061 -25 -116 -25 -361 1 -479 116 -536 550 -962 1096 -1075 47
-10 139 -21 205 -24 l120 -6 -4 -89 -3 -88 200 4 c111 2 204 6 207 10 3 3 10
43 15 89 4 46 13 96 18 110 13 34 61 73 136 111 185 93 375 271 464 434 15 28
27 31 36 8 3 -8 10 -12 16 -9 12 7 2 -24 -15 -45 -28 -36 -27 -43 4 -17 32 26
35 27 52 11 11 -9 19 -23 19 -30 0 -8 25 -38 55 -68 32 -31 55 -63 55 -75 0
-12 5 -21 11 -21 16 0 38 -31 39 -55 0 -15 2 -17 9 -6 5 7 13 11 19 7 5 -3 21
3 35 14 14 11 29 20 33 20 5 0 -8 -12 -29 -27 -20 -14 -37 -30 -37 -36 0 -5
22 7 50 27 35 25 51 32 56 23 4 -7 4 -9 0 -5 -4 4 -35 -13 -68 -38 -33 -24
-65 -44 -72 -44 -6 0 -3 7 7 14 16 12 16 14 1 20 -8 3 -23 1 -32 -4 -14 -9
-12 -10 7 -4 18 5 22 3 15 -7 -5 -8 -9 -18 -9 -23 0 -23 -318 -173 -525 -247
-74 -26 -128 -48 -120 -48 31 -1 255 40 329 60 42 12 136 41 209 65 74 24 139
41 145 38 7 -4 8 -3 4 2 -10 11 143 85 157 76 6 -3 -6 -12 -25 -19 -33 -13
-33 -13 -4 -8 17 2 24 2 17 -1 -6 -3 -10 -10 -6 -15 3 -5 -7 -4 -22 1 -29 11
-56 -1 -33 -15 8 -5 10 -4 5 3 -16 26 17 10 54 -25 37 -36 38 -39 22 -57 -17
-19 -16 -19 8 -3 13 9 29 17 35 17 5 0 -9 -12 -33 -26 -23 -14 -47 -22 -54
-18 -6 4 -8 3 -5 -3 17 -28 -437 -196 -663 -246 -584 -129 -1178 -83 -1739
135 -206 80 -506 242 -480 259 10 6 7 8 -11 7 -15 -2 -24 2 -23 9 2 7 -7 17
-20 23 -21 11 -21 10 -3 -4 37 -30 3 -16 -53 21 -31 20 -60 41 -66 45 -71 56
-99 82 -101 95 -2 9 -9 20 -16 25 -11 8 -11 10 1 15 11 5 11 7 0 14 -12 8 -11
11 1 20 12 8 10 9 -7 4 -12 -3 -31 -2 -41 4 -23 13 -36 3 -21 -16 6 -7 7 -13
2 -13 -12 0 -249 229 -302 293 -22 26 -38 53 -35 60 2 7 -5 23 -17 36 -23 25
-21 31 13 36 42 7 57 11 64 18 4 4 55 -42 113 -101 98 -100 214 -206 247 -225
8 -5 11 -13 8 -19 -4 -6 -3 -8 3 -5 6 4 22 -3 35 -16 14 -12 32 -26 40 -32 9
-5 53 -35 99 -66 163 -110 324 -197 491 -265 119 -49 248 -95 248 -89 0 2 -35
25 -77 50 -117 71 -227 161 -334 272 -350 365 -495 882 -378 1348 58 229 155
423 359 719 82 119 397 502 374 456 -4 -8 -4 -12 0 -8 4 3 7 8 5 10 -7 9 25
49 36 44 8 -3 12 0 9 7 -3 9 69 107 80 107 1 0 2 -9 2 -19z m84 -124 c0 -2
-10 -12 -22 -23 l-23 -19 19 23 c18 21 26 27 26 19z m1455 -48 c40 -15 83 -75
67 -91 -9 -9 -12 -7 -12 9 0 29 -45 70 -85 77 -27 5 -43 1 -74 -18 -22 -14
-42 -35 -46 -46 -4 -12 -9 -19 -11 -17 -10 10 19 53 49 75 35 25 65 28 112 11z
m-8 -57 c6 -4 17 -20 22 -35 7 -18 7 -26 1 -22 -6 3 -10 13 -10 20 0 8 -12 21
-27 29 -16 8 -21 15 -13 15 8 1 20 -3 27 -7z m-63 -21 c-10 -10 -21 -14 -23
-8 -4 10 17 27 33 27 5 0 1 -8 -10 -19z m-2568 -167 c73 -149 140 -244 172
-244 7 0 20 13 31 30 10 16 21 27 24 23 12 -11 7 -63 -8 -93 -63 -121 -198
-51 -293 152 -21 43 -41 78 -46 78 -19 0 5 -163 50 -338 25 -101 43 -186 39
-190 -4 -4 -27 -7 -52 -7 -40 0 -49 4 -79 40 -38 44 -115 188 -134 250 -7 22
-17 45 -22 50 -15 14 -3 -162 17 -250 13 -63 69 -269 82 -300 7 -21 -32 -27
-78 -14 -51 16 -134 110 -199 228 -25 45 -50 79 -56 77 -16 -6 -62 47 -70 79
-3 14 -10 25 -14 25 -4 0 -5 11 -3 24 4 17 -2 28 -18 40 -22 15 -22 16 -4 16
11 0 31 14 45 30 14 17 30 30 37 30 7 0 13 7 13 15 0 8 5 15 10 15 6 0 10 -4
10 -9 0 -12 39 -21 46 -10 8 13 24 11 22 -2 -2 -6 5 -13 15 -14 10 -2 29 -16
43 -32 18 -21 23 -35 18 -59 -4 -22 -1 -33 9 -37 12 -4 14 12 9 107 -4 89 -1
118 11 142 20 38 81 73 103 59 9 -6 43 -74 76 -153 33 -78 64 -142 69 -142 5
0 5 10 0 23 -14 35 -50 209 -62 293 -18 133 17 224 87 224 20 0 34 -22 100
-156z m2481 114 c-3 -8 -6 -5 -6 6 -1 11 2 17 5 13 3 -3 4 -12 1 -19z m230
-10 c-3 -7 -5 -2 -5 12 0 14 2 19 5 13 2 -7 2 -19 0 -25z m-37 2 c0 -5 -2 -10
-4 -10 -3 0 -8 5 -11 10 -3 6 -1 10 4 10 6 0 11 -4 11 -10z m-29 -33 c-10 -9
-11 -8 -5 6 3 10 9 15 12 12 3 -3 0 -11 -7 -18z m-134 6 c-4 -3 1 -12 11 -20
15 -13 15 -13 -5 -3 -24 11 -31 30 -11 30 6 0 8 -3 5 -7z m81 -40 c-10 -2 -26
-2 -35 0 -10 3 -2 5 17 5 19 0 27 -2 18 -5z m-870 -72 c3 -8 0 -11 -6 -7 -6 4
-26 7 -45 8 -49 2 -80 -33 -87 -97 -8 -76 -1 -145 14 -145 10 0 15 24 18 91 3
64 8 93 19 100 20 13 65 11 77 -3 14 -19 27 -212 13 -204 -7 4 -11 41 -11 91
0 84 -12 115 -44 115 -27 0 -36 -26 -36 -104 0 -85 -4 -99 -31 -108 -31 -12
-39 13 -39 114 0 95 1 98 31 133 29 33 36 36 77 33 28 -2 47 -8 50 -17z m432
15 c0 -3 -4 -8 -10 -11 -5 -3 -10 -1 -10 4 0 6 5 11 10 11 6 0 10 -2 10 -4z
m-704 -24 c18 -12 38 -55 44 -97 4 -28 10 -39 20 -37 12 3 11 0 -1 -15 -9 -10
-20 -27 -24 -38 -6 -14 -11 2 -15 57 -5 61 -11 83 -28 101 -30 32 -27 50 4 29z
m-15 -39 c11 -15 11 -16 -1 -5 -23 20 -35 14 -14 -9 13 -15 20 -40 22 -90 2
-38 8 -66 13 -63 5 3 4 -6 -3 -20 -6 -14 -15 -26 -20 -26 -10 0 -9 -5 -11 93
-2 64 -5 81 -21 92 -16 12 -17 17 -6 30 16 19 25 19 41 -2z m1911 -20 c-6 -10
-28 -34 -49 -53 -32 -29 -34 -30 -12 -5 15 17 34 43 44 58 19 30 33 30 17 0z
m-1944 -40 c-2 -13 -8 -23 -14 -23 -7 0 -10 8 -7 20 3 11 0 20 -6 20 -6 0 -8
-7 -4 -17 5 -12 3 -14 -8 -8 -12 8 -12 6 0 -8 7 -9 20 -17 27 -17 8 0 14 -8
14 -17 0 -13 -3 -14 -12 -5 -7 7 -17 12 -22 12 -6 0 -4 -5 4 -11 12 -8 8 -10
-17 -7 -43 6 -33 -8 13 -17 33 -6 36 -9 32 -35 -2 -16 -1 -27 3 -25 10 7 20
-25 13 -37 -5 -7 -12 -4 -20 7 -8 10 -17 15 -21 12 -3 -4 2 -13 12 -21 17 -12
17 -16 6 -30 -11 -14 -16 -14 -24 -4 -6 9 -7 8 -3 -5 4 -11 -2 -31 -14 -47
-23 -33 -26 -48 -5 -30 8 6 20 8 26 4 7 -4 9 -3 6 3 -7 11 12 26 78 63 40 23
70 27 42 6 -16 -13 -16 -14 -1 -20 9 -4 19 -4 22 -1 3 3 0 5 -8 5 -9 0 -10 3
-1 13 6 8 8 16 5 20 -3 3 4 11 16 17 18 10 21 10 14 -2 -21 -33 -4 -60 51 -80
15 -6 14 -7 -7 -4 -16 2 -28 -1 -28 -6 0 -6 15 -8 34 -6 19 2 34 0 33 -5 -1
-5 4 -12 12 -15 8 -3 11 0 7 7 -5 7 -1 9 10 4 15 -6 14 -8 -7 -16 -158 -64
-327 -200 -414 -335 -127 -198 -156 -458 -73 -662 11 -28 13 -15 9 101 -4 156
12 238 67 343 58 111 189 234 321 301 50 25 180 70 185 64 4 -5 43 -620 56
-894 10 -204 14 -618 6 -626 -9 -9 -206 10 -268 26 -86 22 -193 62 -254 96
-46 26 -52 27 -71 14 -20 -14 -24 -13 -47 10 -14 14 -23 25 -20 25 3 0 -8 12
-25 26 -17 14 -31 34 -31 45 0 10 -5 19 -12 19 -6 0 -9 3 -6 6 10 9 -46 59
-62 56 -10 -2 -11 0 -3 5 8 6 -3 27 -34 68 -58 75 -135 238 -157 329 -72 299
28 604 345 1044 54 75 101 142 103 147 3 6 9 3 16 -5 9 -13 10 -12 6 5 -4 13
3 31 20 50 15 17 33 40 41 52 19 29 53 27 51 -4z m2059 -69 c-3 -3 -12 -4 -19
-1 -8 3 -5 6 6 6 11 1 17 -2 13 -5z m-220 -20 c-3 -3 -12 -4 -19 -1 -8 3 -5 6
6 6 11 1 17 -2 13 -5z m40 0 c-3 -3 -12 -4 -19 -1 -8 3 -5 6 6 6 11 1 17 -2
13 -5z m41 -38 c-3 -18 -10 -21 -53 -22 l-50 -2 45 7 c32 4 46 11 48 24 2 9
-1 17 -7 17 -6 0 -11 5 -11 11 0 8 5 7 15 -1 9 -7 15 -23 13 -34z m-603 -24
c-3 -3 -11 0 -18 7 -9 10 -8 11 6 5 10 -3 15 -9 12 -12z m738 -9 c-7 -2 -19
-2 -25 0 -7 3 -2 5 12 5 14 0 19 -2 13 -5z m-1745 -120 c-7 -9 -16 -10 -29 -2
-26 13 -24 16 10 15 22 -1 27 -4 19 -13z m499 -455 c-3 -8 -6 -5 -6 6 -1 11 2
17 5 13 3 -3 4 -12 1 -19z m2116 -105 c-3 -7 -6 -13 -8 -13 -2 0 -5 6 -8 13
-3 8 1 14 8 14 7 0 11 -6 8 -14z m-2087 -158 c5 -34 8 -37 15 -20 6 14 7 9 3
-15 -6 -31 -5 -33 10 -21 14 12 16 10 16 -15 0 -16 3 -39 6 -52 6 -21 8 -22
29 -8 22 15 23 14 30 -47 5 -34 10 -53 13 -42 2 11 8 24 13 30 5 5 10 43 11
85 1 63 2 56 8 -45 20 -329 22 -347 35 -333 13 14 39 94 55 168 l9 45 -4 -48
c-3 -30 -1 -46 5 -42 6 3 7 -1 4 -9 -4 -11 0 -16 12 -17 17 -1 17 -2 2 -6 -23
-6 -23 -23 0 -23 25 0 53 -37 54 -71 1 -17 6 -28 12 -26 6 2 10 19 9 38 -2 31
-1 32 8 10 12 -29 4 -55 -24 -83 -12 -11 -16 -18 -10 -14 9 5 11 2 7 -8 -3 -9
-11 -13 -17 -9 -6 3 -7 1 -3 -5 10 -16 -12 -54 -26 -46 -7 4 -8 3 -4 -4 14
-23 -144 -190 -231 -244 l-33 -20 0 164 c0 146 -11 468 -24 713 -5 90 -3 94
10 20z m2310 -57 c3 -4 -1 -5 -10 -4 -8 1 -18 5 -22 8 -3 4 1 5 10 4 8 -1 18
-5 22 -8z m-2189 -30 c-3 -8 -6 -5 -6 6 -1 11 2 17 5 13 3 -3 4 -12 1 -19z
m130 0 c-3 -8 -6 -5 -6 6 -1 11 2 17 5 13 3 -3 4 -12 1 -19z m-130 -80 c-3 -8
-6 -5 -6 6 -1 11 2 17 5 13 3 -3 4 -12 1 -19z m140 -90 c-3 -7 -5 -2 -5 12 0
14 2 19 5 13 2 -7 2 -19 0 -25z m140 -80 c-3 -8 -6 -5 -6 6 -1 11 2 17 5 13 3
-3 4 -12 1 -19z m-20 -10 c-3 -8 -6 -5 -6 6 -1 11 2 17 5 13 3 -3 4 -12 1 -19z
m10 -50 c-3 -8 -6 -5 -6 6 -1 11 2 17 5 13 3 -3 4 -12 1 -19z m-2983 -77 c31
-39 56 -73 56 -76 0 -4 10 -15 22 -24 12 -10 18 -23 14 -30 -10 -16 -29 -3
-22 16 4 8 1 11 -5 8 -6 -4 -8 -13 -5 -21 6 -17 -8 -18 -35 -3 -11 5 -17 14
-14 19 8 13 -14 52 -25 45 -5 -3 -7 -12 -3 -20 8 -23 -10 -18 -26 6 -7 12 -9
24 -4 28 4 3 8 15 8 26 -1 25 -22 21 -51 -10 l-23 -24 2 34 c1 20 7 35 14 35
7 0 10 7 6 18 -5 15 -4 14 9 -2 9 -11 20 -16 27 -12 7 5 22 0 34 -11 12 -10 7
-1 -11 20 -30 36 -37 47 -28 47 2 0 29 -31 60 -69z m-63 -116 c17 -24 36 -42
42 -38 6 3 7 1 3 -5 -3 -6 1 -18 10 -27 9 -9 14 -18 12 -21 -5 -4 -78 86 -101
123 -19 31 5 9 34 -32z m19 24 c0 -14 -17 -10 -23 5 -4 10 -1 13 9 9 7 -3 14
-9 14 -14z m17 -41 c-3 -8 -6 -5 -6 6 -1 11 2 17 5 13 3 -3 4 -12 1 -19z
m3297 -133 c-9 -14 -18 -42 -21 -62 -6 -48 -10 -51 -15 -15 -4 26 32 102 47
102 3 0 -2 -11 -11 -25z m-2858 -310 c18 -13 18 -14 1 -15 -15 0 -13 -4 10
-25 15 -13 23 -25 17 -25 -14 0 -57 46 -60 65 -3 19 7 19 32 0z m3109 -73 c-3
-3 -11 0 -18 7 -9 10 -8 11 6 5 10 -3 15 -9 12 -12z m205 -122 c-8 -5 -19 -10
-25 -10 -5 0 -3 5 5 10 8 5 20 10 25 10 6 0 3 -5 -5 -10z m-48 -109 c-10 -6
-5 -11 19 -20 40 -14 42 -14 33 1 -5 7 -3 8 5 3 25 -15 -5 -25 -40 -14 -19 7
-36 13 -38 15 -6 5 10 24 22 24 8 0 8 -3 -1 -9z m108 -15 c-7 -7 -13 -7 -20 0
-6 6 -3 10 10 10 13 0 16 -4 10 -10z"/>
<path d="M3418 6773 c6 -2 18 -2 25 0 6 3 1 5 -13 5 -14 0 -19 -2 -12 -5z"/>
<path d="M3771 6334 c0 -11 3 -14 6 -6 3 7 2 16 -1 19 -3 4 -6 -2 -5 -13z"/>
<path d="M4061 6044 c0 -11 3 -14 6 -6 3 7 2 16 -1 19 -3 4 -6 -2 -5 -13z"/>
<path d="M4071 5904 c0 -11 3 -14 6 -6 3 7 2 16 -1 19 -3 4 -6 -2 -5 -13z"/>
<path d="M4211 5654 c0 -11 3 -14 6 -6 3 7 2 16 -1 19 -3 4 -6 -2 -5 -13z"/>
<path d="M6416 3105 c-3 -9 -6 -22 -5 -28 0 -7 5 -1 10 12 5 13 8 26 5 28 -2
2 -6 -3 -10 -12z"/>
<path d="M6651 2784 c0 -11 3 -14 6 -6 3 7 2 16 -1 19 -3 4 -6 -2 -5 -13z"/>
<path d="M6705 2789 c-4 -6 -5 -12 -2 -15 2 -3 7 2 10 11 7 17 1 20 -8 4z"/>
<path d="M6664 2737 c3 -28 12 -47 13 -24 0 6 4 21 8 32 5 14 4 16 -3 6 -8
-11 -10 -11 -15 0 -3 8 -4 2 -3 -14z"/>
<path d="M1739 5923 c-13 -16 -12 -17 4 -4 9 7 17 15 17 17 0 8 -8 3 -21 -13z"/>
<path d="M1732 5883 c-17 -30 -15 -37 4 -19 8 9 14 22 11 29 -2 7 -8 4 -15
-10z"/>
<path d="M1286 2787 c3 -10 9 -15 12 -12 3 3 0 11 -7 18 -10 9 -11 8 -5 -6z"/>
<path d="M1311 2755 c-2 -30 42 -55 56 -33 4 7 -2 9 -16 5 -19 -4 -21 -2 -16
16 5 16 4 18 -3 8 -8 -11 -10 -11 -15 0 -3 8 -6 10 -6 4z"/>
<path d="M1446 2642 c-3 -5 1 -9 9 -9 8 0 12 4 9 9 -3 4 -7 8 -9 8 -2 0 -6 -4
-9 -8z"/>
<path d="M1400 2622 c6 -13 9 -30 6 -37 -7 -19 15 -80 23 -66 5 8 13 7 26 -3
15 -11 17 -17 8 -28 -10 -11 -4 -27 26 -75 37 -58 61 -84 61 -65 0 4 -8 17
-17 28 -10 11 -19 26 -21 33 -1 7 -9 20 -17 28 -17 17 -19 29 -5 38 6 3 7 -1
4 -9 -3 -9 -1 -16 5 -16 6 0 11 12 11 26 0 14 -3 23 -7 21 -5 -3 -26 11 -48
30 -22 20 -32 30 -22 23 21 -15 23 -4 2 16 -8 8 -13 27 -11 42 2 15 1 21 -1
14 -4 -10 -8 -9 -19 5 -14 17 -14 16 -4 -5z"/>
<path d="M1481 2583 c-9 -16 -12 -16 -22 -3 -9 13 -10 13 -6 0 2 -9 16 -15 35
-16 27 0 29 2 21 18 -12 22 -15 22 -28 1z"/>
<path d="M1527 2486 c4 -18 1 -31 -8 -37 -9 -5 -11 -11 -4 -18 20 -20 34 21
19 54 l-13 30 6 -29z"/>
<path d="M1548 2498 c7 -7 12 -20 12 -29 0 -9 8 -23 18 -30 15 -12 16 -12 6 1
-6 8 -14 27 -18 43 -3 15 -12 27 -18 27 -9 0 -9 -3 0 -12z"/>
<path d="M1530 2401 c0 -16 29 -33 42 -25 7 5 16 9 20 9 17 0 16 13 -2 18 -11
3 -18 1 -14 -4 3 -5 -2 -9 -10 -9 -9 0 -16 5 -16 10 0 6 -4 10 -10 10 -5 0
-10 -4 -10 -9z"/>
<path d="M1559 2339 c-9 -17 -8 -25 6 -38 16 -15 17 -15 11 6 -4 12 -2 24 4
28 13 8 13 25 0 25 -5 0 -14 -10 -21 -21z"/>
<path d="M2461 4834 c0 -11 3 -14 6 -6 3 7 2 16 -1 19 -3 4 -6 -2 -5 -13z"/>
<path d="M2560 4791 c0 -5 5 -13 10 -16 6 -3 10 -2 10 4 0 5 -4 13 -10 16 -5
3 -10 2 -10 -4z"/>
<path d="M2667 4629 c7 -7 15 -10 18 -7 3 3 -2 9 -12 12 -14 6 -15 5 -6 -5z"/>
<path d="M2630 4616 c0 -2 8 -10 18 -17 15 -13 16 -12 3 4 -13 16 -21 21 -21
13z"/>
<path d="M2756 4547 c3 -10 9 -15 12 -12 3 3 0 11 -7 18 -10 9 -11 8 -5 -6z"/>
<path d="M2778 4530 c-6 -15 15 -43 25 -33 3 3 6 -3 5 -13 0 -11 3 -28 7 -39
4 -11 -2 -6 -12 10 -11 17 -27 36 -36 44 -15 11 -18 10 -28 -15 -15 -41 -7
-142 16 -189 17 -33 25 -40 50 -40 29 0 30 1 33 57 2 32 -2 68 -9 80 -9 16 -9
23 -1 26 8 2 7 12 -3 32 -14 27 -11 40 7 40 5 0 6 -4 3 -10 -3 -5 -1 -18 5
-27 9 -15 10 -14 4 6 -4 16 -3 21 5 17 6 -4 11 -15 12 -24 0 -9 3 -12 5 -5 7
15 -25 64 -40 62 -25 -3 -35 2 -38 19 -3 14 -5 14 -10 2z"/>
<path d="M2882 4409 c1 -17 4 -25 8 -18 7 10 2 49 -5 49 -2 0 -3 -14 -3 -31z"/>
<path d="M3026 4165 c-3 -9 -6 -22 -5 -28 0 -7 5 -1 10 12 5 13 8 26 5 28 -2
2 -6 -3 -10 -12z"/>
<path d="M3135 4140 c3 -5 11 -10 16 -10 6 0 7 5 4 10 -3 6 -11 10 -16 10 -6
0 -7 -4 -4 -10z"/>
<path d="M3120 4120 c0 -5 5 -10 11 -10 5 0 7 5 4 10 -3 6 -8 10 -11 10 -2 0
-4 -4 -4 -10z"/>
<path d="M1720 2143 c0 -5 7 -19 16 -31 8 -12 13 -26 9 -31 -3 -5 0 -13 6 -17
8 -5 9 -3 4 6 -5 9 -4 11 4 6 6 -4 10 -15 9 -23 -2 -9 3 -18 10 -20 6 -3 12 0
12 6 0 6 5 11 10 11 6 0 8 -10 5 -22 -4 -17 3 -32 24 -55 30 -33 51 -42 51
-23 0 6 -6 10 -14 10 -7 0 -20 7 -27 17 -13 15 -12 15 8 5 29 -16 36 -15 29 3
-3 8 2 18 11 23 12 7 13 11 3 17 -7 4 -16 2 -22 -6 -7 -10 -8 -8 -3 7 3 13 -1
26 -10 34 -13 11 -14 10 -9 -4 8 -22 -2 -20 -26 4 -27 27 -25 38 5 32 20 -3
25 0 24 14 0 11 -3 14 -5 7 -4 -8 -17 -4 -41 13 -39 26 -53 30 -53 13 0 -8 -5
-8 -15 1 -8 7 -15 8 -15 3z m59 -37 c10 -12 8 -13 -8 -9 -12 3 -21 9 -21 14 0
14 16 11 29 -5z m51 -106 c0 -5 -2 -10 -4 -10 -3 0 -8 5 -11 10 -3 6 -1 10 4
10 6 0 11 -4 11 -10z"/>
<path d="M1890 2051 c0 -5 9 -13 20 -16 16 -5 19 -12 14 -28 -4 -12 -13 -26
-20 -30 -19 -11 -18 -34 2 -45 11 -6 13 -12 6 -16 -6 -3 -13 -2 -17 4 -3 5
-11 10 -18 10 -6 0 6 -16 26 -35 37 -35 57 -44 57 -25 0 6 -6 10 -14 10 -7 0
-20 7 -27 17 -13 15 -12 15 8 5 27 -15 33 -15 33 -2 0 6 -6 10 -14 10 -23 0
-24 23 -3 52 11 14 17 32 14 40 -4 9 -6 7 -6 -4 -1 -10 -6 -18 -12 -18 -7 0
-9 9 -5 24 4 18 0 28 -19 40 -14 9 -25 12 -25 7z m31 -98 c-8 -15 -10 -15 -11
-2 0 17 10 32 18 25 2 -3 -1 -13 -7 -23z"/>
<path d="M1950 1943 c0 -7 28 -33 35 -33 3 0 3 5 -1 12 -5 7 -2 9 9 5 10 -4
14 -2 11 6 -4 11 -54 21 -54 10z"/>
<path d="M4913 1915 c0 -14 3 -25 8 -25 5 0 9 9 9 19 0 11 -4 22 -9 25 -5 3
-8 -6 -8 -19z"/>
<path d="M1975 1890 c-3 -5 -1 -19 5 -31 11 -19 10 -20 -9 -14 -29 9 -26 1 5
-20 15 -9 24 -13 20 -7 -3 5 1 13 10 16 20 8 61 -29 44 -39 -7 -4 -16 -1 -21
6 -4 7 -10 11 -14 8 -3 -3 3 -13 12 -22 15 -13 21 -14 37 -2 17 13 16 16 -20
49 -21 19 -42 32 -48 29 -5 -4 -7 3 -4 15 6 22 -6 30 -17 12z"/>
<path d="M2165 1791 c-3 -5 -2 -12 3 -15 5 -3 9 1 9 9 0 17 -3 19 -12 6z"/>
<path d="M5120 1656 c0 -2 7 -6 15 -10 8 -3 15 -1 15 4 0 6 -7 10 -15 10 -8 0
-15 -2 -15 -4z"/>
<path d="M2200 1640 c0 -5 5 -10 11 -10 5 0 7 5 4 10 -3 6 -8 10 -11 10 -2 0
-4 -4 -4 -10z"/>
<path d="M2300 1580 c-9 -6 -10 -10 -3 -10 6 0 15 5 18 10 8 12 4 12 -15 0z"/>
<path d="M5273 1335 c0 -8 4 -12 9 -9 5 3 6 10 3 15 -9 13 -12 11 -12 -6z"/>
<path d="M1640 3502 c0 -37 76 -202 99 -216 5 -3 -4 43 -20 102 -16 59 -29
110 -29 115 0 4 -11 7 -25 7 -14 0 -25 -4 -25 -8z"/>
<path d="M3390 3680 c8 -5 22 -9 30 -9 10 0 8 3 -5 9 -27 12 -43 12 -25 0z"/>
<path d="M3393 3653 c9 -2 23 -2 30 0 6 3 -1 5 -18 5 -16 0 -22 -2 -12 -5z"/>
<path d="M3370 3620 c20 -13 33 -13 25 0 -3 6 -14 10 -23 10 -15 0 -15 -2 -2
-10z"/>
<path d="M3643 3483 c-13 -2 -23 -9 -23 -15 0 -5 7 -7 16 -4 9 3 22 6 30 6 8
0 14 5 14 10 0 6 -3 9 -7 9 -5 -1 -18 -4 -30 -6z"/>
<path d="M3792 3260 c0 -14 2 -19 5 -12 2 6 2 18 0 25 -3 6 -5 1 -5 -13z"/>
<path d="M3640 3054 c0 -5 -12 -17 -27 -26 -41 -24 -112 -97 -145 -148 -44
-68 -68 -159 -68 -254 0 -123 46 -293 76 -282 8 3 14 -1 14 -9 0 -8 11 -24 24
-36 15 -13 22 -28 19 -40 -3 -10 0 -20 6 -20 6 -1 16 -3 21 -4 6 -1 13 -3 17
-4 3 0 -4 -10 -16 -20 l-22 -19 20 -39 c10 -21 29 -48 41 -60 11 -13 18 -23
15 -23 -8 0 50 -83 69 -99 14 -12 16 0 16 125 0 258 -37 943 -51 959 -6 5 -9
5 -9 -1z"/>
<path d="M4306 2645 c-9 -26 -7 -32 5 -12 6 10 9 21 6 23 -2 3 -7 -2 -11 -11z"/>
<path d="M4437 2510 c3 -30 7 -57 9 -59 8 -9 2 75 -6 94 -5 12 -6 -1 -3 -35z"/>
<path d="M4533 2389 c-2 -23 3 -25 10 -4 4 8 3 16 -1 19 -4 3 -9 -4 -9 -15z"/>
<path d="M4544 2315 c-3 -8 -4 -20 -2 -27 3 -7 7 -1 10 15 6 29 1 36 -8 12z"/>
<path d="M4571 2194 c0 -11 3 -14 6 -6 3 7 2 16 -1 19 -3 4 -6 -2 -5 -13z"/>
<path d="M1699 2268 c24 -28 52 -29 30 -2 -6 8 -14 12 -17 9 -3 -3 -12 1 -21
7 -9 7 -5 0 8 -14z"/>
</g>
</svg>
